<svg width="34" height="34" viewBox="0 0 34 34" fill="none" xmlns="http://www.w3.org/2000/svg">
<rect width="34" height="34" rx="10" fill="url(#paint0_linear_17_95864)"/>
<rect x="0.5" y="0.5" width="33" height="33" rx="9.5" stroke="white" stroke-opacity="0.13"/>
<path d="M20.379 8.6405H23.9436V19.5893C23.9436 20.8186 23.65 21.8943 23.0627 22.8163C22.481 23.7383 21.666 24.4573 20.6178 24.9731C19.5695 25.4835 18.3484 25.7387 16.9545 25.7387C15.555 25.7387 14.3311 25.4835 13.2829 24.9731C12.2347 24.4573 11.4197 23.7383 10.8379 22.8163C10.2562 21.8943 9.96533 20.8186 9.96533 19.5893V8.6405H13.5299V19.2847C13.5299 19.9268 13.6698 20.4976 13.9497 20.997C14.2351 21.4964 14.6357 21.8888 15.1516 22.1742C15.6675 22.4596 16.2684 22.6023 16.9545 22.6023C17.646 22.6023 18.2469 22.4596 18.7573 22.1742C19.2732 21.8888 19.6711 21.4964 19.951 20.997C20.2363 20.4976 20.379 19.9268 20.379 19.2847V8.6405Z" fill="white"/>
<defs>
<linearGradient id="paint0_linear_17_95864" x1="0" y1="34" x2="34" y2="34" gradientUnits="userSpaceOnUse">
<stop stop-color="#571BC7"/>
<stop offset="1" stop-color="#2B2562"/>
</linearGradient>
</defs>
</svg>
